<svg width="591" height="589" xmlns="http://www.w3.org/2000/svg" xmlns:xlink="http://www.w3.org/1999/xlink" overflow="hidden"><defs><clipPath id="clip0"><rect x="1428" y="617" width="591" height="589"/></clipPath></defs><g clip-path="url(#clip0)" transform="translate(-1428 -617)"><path d="M6.875-4.93155e-06 6.87534 468.74-6.87466 468.74-6.875 4.93155e-06ZM20.6253 461.865 0.000360892 503.115-20.6247 461.865Z" fill="#F7DEC1" transform="matrix(1 0 0 -1 1471 1163.11)"/><path d="M1.45496e-05-6.875 477.214-6.87399 477.214 6.87601-1.45496e-05 6.875ZM470.339-20.624 511.589 0.00108268 470.339 20.626Z" fill="#F7DEC1" transform="matrix(1 0 0 -1 1465 1163)"/><path d="M1541.86 763.623C1574.2 853.392 1606.53 943.162 1677.87 1000.75 1749.21 1058.33 1969.89 1109.13 1969.89 1109.13L1969.89 1109.13" stroke="#F7DEC1" stroke-width="13.75" stroke-miterlimit="8" fill="none" fill-rule="evenodd"/><path d="M1524.75 1081.77C1620.13 1079.2 1715.52 1076.62 1792.56 1026.93 1869.6 977.233 1987 783.593 1987 783.593L1987 783.593" stroke="#F7DEC1" stroke-width="13.75" stroke-miterlimit="8" fill="none" fill-rule="evenodd"/></g></svg>